<?xml version="1.0" standalone="no"?>
<!DOCTYPE svg PUBLIC "-//W3C//DTD SVG 20010904//EN"
 "http://www.w3.org/TR/2001/REC-SVG-20010904/DTD/svg10.dtd">
<svg version="1.0" xmlns="http://www.w3.org/2000/svg"
 width="260.000000pt" height="260.000000pt" viewBox="0 0 260.000000 260.000000"
 preserveAspectRatio="xMidYMid meet">
<metadata>
Created by potrace 1.11, written by Peter Selinger 2001-2013
</metadata>
<g transform="translate(0.000000,260.000000) scale(0.100000,-0.100000)"
fill="#000000" stroke="none">
<path d="M910 1869 c-150 -11 -416 -52 -510 -78 -115 -32 -272 -79 -340 -101
-54 -18 -55 -19 -58 -59 -2 -23 -2 -41 0 -41 2 0 44 14 93 31 175 60 412 124
560 149 33 5 89 15 125 22 78 14 628 13 770 -2 176 -18 197 -22 175 -31 -11
-4 -36 -8 -56 -8 -53 -1 -177 -36 -200 -57 -37 -33 -11 -68 34 -46 12 6 56 21
97 34 63 19 98 23 215 23 120 0 151 -4 215 -24 41 -13 82 -28 90 -32 8 -4 40
-19 70 -34 78 -39 167 -100 297 -204 l113 -90 0 43 0 42 -123 91 c-130 96
-223 156 -297 190 -96 45 -139 63 -152 63 -8 0 -18 4 -23 9 -10 8 -157 46
-275 70 -200 42 -560 59 -820 40z"/>
<path d="M1005 1686 c-55 -12 -109 -26 -120 -30 -87 -35 -121 -51 -180 -84
-97 -57 -174 -122 -175 -149 0 -37 34 -28 103 26 81 63 155 104 247 136 41 14
89 31 105 36 17 6 81 13 143 16 124 6 147 19 103 55 -31 24 -97 22 -226 -6z"/>
<path d="M2072 1618 c-6 -13 -13 -46 -16 -74 -7 -71 -51 -140 -118 -183 -47
-31 -62 -35 -134 -39 -71 -4 -88 -1 -129 19 -53 26 -101 76 -122 126 -17 41
-41 53 -59 28 -11 -15 -10 -24 6 -55 28 -54 98 -122 154 -149 42 -21 58 -23
149 -19 81 3 111 9 144 27 50 27 104 84 133 141 25 49 44 143 36 176 -8 30
-29 31 -44 2z"/>
<path d="M1283 1438 c-12 -16 -29 -62 -38 -101 -16 -74 -101 -160 -212 -213
-51 -25 -69 -28 -153 -27 -87 0 -100 3 -155 32 -33 17 -82 52 -110 76 -53 47
-60 51 -70 35 -15 -25 57 -109 137 -158 42 -26 159 -62 201 -62 93 0 242 67
316 141 88 89 148 244 107 278 -10 8 -16 8 -23 -1z"/>
<path d="M1413 1338 c-37 -27 -48 -47 -33 -62 8 -8 22 -5 50 12 21 12 48 22
60 22 36 0 22 -50 -20 -77 -19 -12 -44 -29 -54 -39 -18 -16 -18 -18 -1 -30 19
-14 50 -3 107 39 50 37 60 103 22 141 -23 24 -93 20 -131 -6z"/>
<path d="M1545 1116 c-11 -7 -33 -16 -50 -20 -44 -10 -77 -38 -69 -59 18 -48
174 25 174 82 0 15 -32 14 -55 -3z"/>
<path d="M1540 980 c0 -13 7 -20 20 -20 18 0 19 -3 8 -20 -15 -24 -6 -34 21
-25 24 7 29 53 9 73 -20 20 -58 15 -58 -8z"/>
</g>
</svg>
